<svg id="Layer_1" data-name="Layer 1" xmlns="http://www.w3.org/2000/svg" viewBox="0 0 94 72"><title>-</title><path d="M92.092,55.1558a1.9749,1.9749,0,0,0-.9321-2.4784c-.163-.3809-.96-.8835-1.4208-1.2091-.65-.4591-.9308-1.8811-2.594-1.8811-.7975,0-.9013.1142-1.5194.1142-.7744,0-2.5221-3.1363-2.9824-5.3046A47.8127,47.8127,0,0,0,79.925,35.33c1.3964-1.5957,4.1006-5.1352,4.1006-8.6a12.0457,12.0457,0,0,0-1.6657-6.629,1.5368,1.5368,0,0,1,.763-.254c.4949,0,1.2668.3534,2.1143.3534.995,0,1.8041-.5084,1.8041-1.465,0-.493-.1435-.8123-.4115-.9066a2.1346,2.1346,0,0,0-.7861-2.5933,3.1629,3.1629,0,0,1-.6385,1.5278c-.7155-.4961-.9385-.7917-.9963-1.0848a1.9812,1.9812,0,0,0,.9527.2033,9.3585,9.3585,0,0,1-.1281-3.0376l.1268-.19c.1232.5469.5784.9636.7976.9636.1718,0,.21-.0872.2987-.0872.0846,0,.1937.3751.3821.3751a.8487.8487,0,0,0,.4808-.1667,1.79,1.79,0,0,0-.0615,1.3553c.69.0789,1.4541-.3616,2.1734-1.3322,1.3385.3244,2.081-.91,2.8734-2.4049a2.0284,2.0284,0,0,0,1.4028-1.81c0-.9071-.972-1.5238-1.1052-1.7938a3.707,3.707,0,0,0-2.5543-2.02,5.6844,5.6844,0,0,0-1.65-1.2392,1.9006,1.9006,0,0,0-1.54-1.2451,14.8262,14.8262,0,0,0-5.6124-1.954A3.6418,3.6418,0,0,0,78.5928.3c-8.11,0-13.5312,8.962-20.5181,13.1985-3.93,2.3829-6.5649,2.5542-14.514,2.5542-6.104,0-12.6645-1.2406-15.8071-1.2406-5.74,0-7.7908,2.6023-10.6578,2.6023-3.7108,0-14.0679-4.8718-14.0679-11.0309,0-1.7939.6623-3.8121,2.9035-3.8121,1.7907,0,2.44,1.1342,2.44,1.949s-.179,1.2674-.179,1.6316A2.8369,2.8369,0,0,0,9.24,8.2556c.3763.3776.7237,1.7079,1.3437,1.7079.9623,0,1.9208-2.3349,1.9208-3.4511,0-.9334-1.0719-1.5983-1.204-2.14C10.8758,2.626,10.0314,0,5.9314,0,2.8882,0,0,1.9688,0,6.3836c0,6.2181,7.2272,12.59,15.5109,15.1648a12.6618,12.6618,0,0,0,1.7284.4532c.1379.0243.1706.0635.1078.2456a4.1876,4.1876,0,0,0-.2546,1.5732c-1.1809.7764-2.5163,3.0485-2.5163,6.2669,0,2.4888-.284,5.0494-1.3778,6.188-.7514.7833-2.4631,1.2655-3.94,2.1874-1.8368,1.1451-2.574,2.3914-2.574,5.0327,0,5.1481-.7655,5.9456-.7655,8.5421a5.3819,5.3819,0,0,0,.74,3.0787.4354.4354,0,0,0,.0218.04H3.76v1.8221H94V55.1558Zm-35.1468,0a1.59,1.59,0,0,1-.0578-1.7693,1.7383,1.7383,0,0,1-.5142-1.1578,1.39,1.39,0,0,1,.2155-.7759.9587.9587,0,0,0-.6642,1.0065,1.3382,1.3382,0,0,0,.382.9245,2.2473,2.2473,0,0,0-.3487,1.772H52.3061a1.691,1.691,0,0,1-.51-1.2463,2.2383,2.2383,0,0,1,.223-1.0886,2.2707,2.2707,0,0,1-.1821-2.1271c.1655-.38,1.05-.3078,1.05-1.1591a.7336.7336,0,0,0-.8092-.78.8174.8174,0,0,0-.75.8746,1.8708,1.8708,0,0,1-.2154-.8373c0-1.8541,1.1949-2.9273,3.153-5.5008,1.377-1.8091,2.7452-5.1993,4-6.5841.459-.04,1.0309-.0693,1.7182-.0693.2179,0,.43.0026.6373.0039-.7194,1.79-1.9183,4.6275-2.3849,5.7264a4.8374,4.8374,0,0,0-.0206,3.562A68.8474,68.8474,0,0,0,67.5,37.9114c.1412.123.2719.2371.3873.3334-3.2492,4.42-9.8077,9.2332-10.5078,9.9435s-1.2719,1.3835-1.1065,2.2926a2.3263,2.3263,0,0,1,3.403,1.331c.0512.2629.0384.6616.3846.7411a1.3383,1.3383,0,0,1,1.0258.5565,2.3466,2.3466,0,0,0-.5668.4513,1.1736,1.1736,0,0,0-.6552-.2744,1.6977,1.6977,0,0,0-.9616-.9706c-.0974-.4847-.527-1.1681-1.0976-1.1681a1.0083,1.0083,0,0,0-.4654.12c.5756,0,.9078.604.9821,1.2374.2693.1141.8463.4834.8463.7859,0,.1859-.091.2886-.3128.377a1.77,1.77,0,0,1,.0345.9656.95.95,0,0,1-.3191.5217Zm-11.583-.6692a.5625.5625,0,0,1,.2449.4437c-.0954.1217-.3763.14-.6347.0961A1.3023,1.3023,0,0,0,45.3622,54.4866Zm-.1064-1.2874s.3173-.35.3853-.45a1.5315,1.5315,0,0,1,.6123,1.2207.5508.5508,0,0,1-.1379.368,1.4967,1.4967,0,0,0-.6565-.7474A.7521.7521,0,0,0,45.2558,53.1992Zm-.59,1.4a4.19,4.19,0,0,0-.2051-.8616c.3359-.2795.5956-.1975.5956.091A.8557.8557,0,0,1,44.6653,54.5994Zm2.0791.55c0-.3385.3867-.5937.3867-1.2835,0-1.2771-1.4073-2.3042-2.2843-2.6761-.5476-1.5783-2.23-2.1912-3.9851-1.7591a12.255,12.255,0,0,1-2.553-6.3841,14.9444,14.9444,0,0,0,.99-4.44,3.4194,3.4194,0,0,0,.4841-2.1734,31.6049,31.6049,0,0,0,10.0262,1.49,21.8726,21.8726,0,0,0,6.976-1.0872l.0077.0257c-1.0925,1.236-2.2323,4.39-3.8249,6.3392-1.5258,1.867-2.8921,3.512-2.8921,5.4661,0,1.1565.5655,1.6028.5655,2.1913a8.91,8.91,0,0,0-.0834.9616,2.1031,2.1031,0,0,0,.379,1.1887,2.6879,2.6879,0,0,0-.2469,1.0924,3.22,3.22,0,0,0,.2173,1.0552H46.7535ZM37.515,42.3414h-.014a14.1046,14.1046,0,0,0-1.8477-1.4746,3.7371,3.7371,0,0,1-1.5284-2.908,1.6851,1.6851,0,0,1,1.5669-1.73,2.9173,2.9173,0,0,1,2.4125,1.6746,1.6281,1.6281,0,0,1,.2288.8886A17.5584,17.5584,0,0,1,37.515,42.3414Zm14.2243,7.2253a.3914.3914,0,0,1,.35-.4052c.2668,0,.3592.1924.3656.3963A.4336.4336,0,0,1,52.0727,50C51.8585,50,51.7393,49.86,51.7393,49.5667Zm-.0076-14.67c-1.0323.0558-1.4644-.0623-1.8907-.4835-.1052-.1038-.0621-.2026.245-.35a5.6839,5.6839,0,0,0,1.6944.5629C51.7048,34.7379,51.6817,34.8353,51.7317,34.8963Zm-2.49-.6111a4.877,4.877,0,0,1-2.3311-1.0822,1.0782,1.0782,0,0,0,.6014-.0763,7.504,7.504,0,0,0,1.97.7355C49.232,34.0076,49.1736,34.09,49.2416,34.2852Zm-5.46-4.76a3.4075,3.4075,0,0,0,1.08,1.11,3.7807,3.7807,0,0,0-.9008.0276,13.3319,13.3319,0,0,1-1.3161-1.2779c-.0392-.0449.0115-.082.073-.0878A1.7914,1.7914,0,0,1,43.7813,29.5256Zm-.895-1.2392a5.2518,5.2518,0,0,1,1.0738.157l.2673.3674c-.1762.0385-.3987.0847-.4365.2071a1.9411,1.9411,0,0,0-.6219-.166,2.1327,2.1327,0,0,1-.3295-.49C42.817,28.316,42.8426,28.2864,42.8863,28.2864Zm2.8285,1.1175a6.7454,6.7454,0,0,0,1.3772,1.1552,4.8328,4.8328,0,0,0-1.224.1687,4.798,4.798,0,0,1-1.5739-1.3624.0694.0694,0,0,1,.0225-.0911A2.22,2.22,0,0,1,45.7148,29.4039Zm-1.2187-1.2624a3.2973,3.2973,0,0,1,1.23.5917.2753.2753,0,0,0-.1532.22,2.4526,2.4526,0,0,0-.8347-.1885,2.53,2.53,0,0,1-.3244-.5378C44.38,28.1287,44.3961,28.1185,44.4961,28.1415Zm4.8865,3.1267a2.5851,2.5851,0,0,0,.6385.3661,1.4424,1.4424,0,0,0-.2653.1724c-.4879-.2667-1.2163-.6328-1.7162-.9751-.0463-.0315-.0489-.0647.01-.0827a4.3749,4.3749,0,0,1,2.1446-.1776,3.306,3.306,0,0,0-.8175.5072A.1208.1208,0,0,0,49.3826,31.2682Zm-.5006.661-.0007.0384a9.5621,9.5621,0,0,1-1.0258.1789,4.034,4.034,0,0,1-1.5406-.91c-.0378-.04-.0077-.0763.0359-.09a3.9171,3.9171,0,0,1,1.0694-.1321A9.2821,9.2821,0,0,0,48.882,31.9292Zm-1.1644-1.6368a4.9383,4.9383,0,0,1-1.3386-1.0406c-.06-.0711-.0371-.1121.0385-.1121a7.1868,7.1868,0,0,1,2.9613.8809A4.782,4.782,0,0,0,47.7176,30.2924Zm-3.56.91a4.2332,4.2332,0,0,1,1.3341-.016,3.55,3.55,0,0,0,1.6021,1.1789c-.2095.0847-.18.25-.0441.3886a5.6683,5.6683,0,0,1-2.8946-1.4854C44.1249,31.2368,44.1127,31.2259,44.1576,31.2028Zm3.7742,1.5381a.0527.0527,0,0,1,0-.077s1.4-.2737,1.5945-.3642a3.6191,3.6191,0,0,0,1.35.4739,3.19,3.19,0,0,0-1.1162.6532A7.988,7.988,0,0,1,47.9318,32.7409Zm5.3346-1.4093a8.9148,8.9148,0,0,0-1.2013.56,7.2137,7.2137,0,0,1-1.7856-.6668c-.0647-.0365-.0609-.0962.0007-.1372a3.45,3.45,0,0,1,2.9555-.159C53.1613,31.1,53.1446,31.2086,53.2664,31.3316ZM61.76,14.6225l-.1321.0166a6.1891,6.1891,0,0,0-.9155.1282l-.1821.0283a2.1306,2.1306,0,0,1,.2873-.7027c.2257-.0719.5873-.12.8911-.2142C61.6779,13.9981,61.6176,14.5314,61.76,14.6225Zm.3512.6821c3.59,0,7.7024,5.127,8.9666,6.8245l-.6461.3425c-1.2759-1.6913-5.1533-6.454-8.3205-6.454-2.5617,0-3.4708,1.5681-3.4708,2.9106v.016c0,1.4271,1.4847,5.5013,8.0869,5.5013,1.4425,0,2.1194-.3147,4.4031-1.5336a6.409,6.409,0,0,1,3.5838-1.0732c3.053,0,5.7687,4.039,5.77,7.2228a5.5912,5.5912,0,0,1-1.66,4.2025A4.5713,4.5713,0,0,1,75.23,34.39a7.591,7.591,0,0,0-3.9825.6572,6.75,6.75,0,0,1-2.6787.63A5.8124,5.8124,0,0,1,64.3525,33.31a8.88,8.88,0,0,1-1.999-5.5386c0-.0474.0013-.0949.0026-.143a8.9838,8.9838,0,0,1,.4693-2.3169l.7065.1744a8.3905,8.3905,0,0,0-.4474,2.1574c-.0014.048-.0014.0961-.0014.1435a8.1483,8.1483,0,0,0,1.8323,5.0769,5.0946,5.0946,0,0,0,3.653,2.1,5.9942,5.9942,0,0,0,2.4094-.5771,8.291,8.291,0,0,1,4.3146-.7059,3.8681,3.8681,0,0,0,3.0389-.938,4.95,4.95,0,0,0,1.4231-3.68v-.016c0-2.8357-2.4438-6.4938-5.04-6.4938a7.812,7.812,0,0,0-3.9184,1.2823,8.2061,8.2061,0,0,1-4.0685,1.3245,9.8664,9.8664,0,0,1-7.024-2.4113,5.7618,5.7618,0,0,1-1.7926-3.8184C57.9184,17.1228,59.2172,15.3046,62.1111,15.3046Zm.9952-1.1015s-.4027.0943-.6476.1481c-.1116.0245-.15-.0147-.1577-.0455a1.5122,1.5122,0,0,1-.0424-.6436,3.4341,3.4341,0,0,0,1.022-.6585A2.4533,2.4533,0,0,0,63.1063,14.2031Zm1.6245.1975s-.0795.4693.09.5393a1.3192,1.3192,0,0,0,.5847-.0533,1.4643,1.4643,0,0,1-.1359.6982l-.0051-.0013a8.18,8.18,0,0,0-1.6284-.7194A3.1178,3.1178,0,0,0,64.7308,14.4006Zm-1.0156-.2539a3.7351,3.7351,0,0,1,.254-1.3771,8.5639,8.5639,0,0,0,.9257-.4372.7485.7485,0,0,0,.4155.2962,5.8266,5.8266,0,0,0-.4655,1.104,6.6565,6.6565,0,0,1-.9745.5308C63.7421,14.3057,63.7152,14.2243,63.7152,14.1467ZM70.602,8.053a9.5072,9.5072,0,0,0,.9476-.5276,4.3092,4.3092,0,0,0-.15,1.5412A5.2491,5.2491,0,0,1,70.3059,10.08,5.7291,5.7291,0,0,0,70.602,8.053Zm1.2963,1.2649a.2657.2657,0,0,0,.0873.0007,8.5553,8.5553,0,0,0-.5257,2.4721c-.08.3642-.5578.7943-1.5618,1.1962-.0936.038-.12.0231-.1436-.0383a.9314.9314,0,0,1-.0552-.4078,3.5687,3.5687,0,0,0,.45-1.6989A7.2554,7.2554,0,0,0,71.8983,9.3179Zm1.1322.7263a6.04,6.04,0,0,0,1.1989-.5455c-.0179.18-.1423.6636-.1423.6636s-.186.123-.74.5373a8.05,8.05,0,0,1-1.19.8237c-.1206,0-.0757-.2359-.0757-.3865a10.8149,10.8149,0,0,1,.45-1.9446l.41-.3013a8.1883,8.1883,0,0,0-.1307.9925A.1575.1575,0,0,0,73.0305,10.0442Zm4.3147-4.12a1.4031,1.4031,0,0,0,1.0193.3128.977.977,0,0,1-.7346.2866,1.5708,1.5708,0,0,1-.9117-.4686A1.4654,1.4654,0,0,0,77.3452,5.9239ZM76.4015,5.67a6.7464,6.7464,0,0,1-.8065-1.0481c-.01-.0327-.01-.1007.1115-.1007.5079,0,1.3939,1.1577,1.3939,1.1577A.7409.7409,0,0,1,76.4015,5.67Zm1.9234,1.75a1.38,1.38,0,0,1-.6053.3456,1.6248,1.6248,0,0,1,.0809-.8,1.1681,1.1681,0,0,0,.3294-.08A1.1987,1.1987,0,0,0,78.3249,7.42Zm-.0578.5577a2.2841,2.2841,0,0,0,.8039.1841c-.1372.373-.2628.7558-.3718,1.1558-.0423-.0122-1.1936-.5987-1.5116-.68-.0667-.0167-.0385-.0847-.0245-.1052.0231-.03.3654-.2981.3654-.2981A2.1863,2.1863,0,0,0,78.2671,7.9773Zm1.7066-2.1367c-.1038.2871-.2141.5693-.3256.8493a2.1431,2.1431,0,0,1-.5719-.5269,1.4583,1.4583,0,0,1,.6026-.5244C79.7378,5.6725,79.8763,5.77,79.9737,5.8406Zm-.2884-.902c0-.2.468-.4059.6949-.4259-.0654.2707-.14.5329-.2217.7893C80.0161,5.2577,79.6853,5.07,79.6853,4.9386Zm-.2064,2.1745q-.127.3115-.2489.6258a1.895,1.895,0,0,1-.4808-.0853A8.1369,8.1369,0,0,1,79.4789,7.1131Zm-.3412-.2442c-.1154.0763-.2486.1481-.4154.2622a1.02,1.02,0,0,1-.1859-.409.87.87,0,0,0,.2437-.229A2.82,2.82,0,0,0,79.1377,6.8689Zm1.0041,14.5032a.9481.9481,0,0,0,.3576-.1648c0,.2237-.0153.409-.0307.6058-.0153.1834.0243.2411.109.2764a1.2085,1.2085,0,0,0,.2782.08,1.429,1.429,0,0,1-.5551.7572c-.13.0589-.2232-.0225-.1834-.1821A5.7012,5.7012,0,0,0,80.1418,21.3721Zm.1922,2.2323a2.4726,2.4726,0,0,0,.6091-.6033,3.1665,3.1665,0,0,0,.1488,1.1213A5.35,5.35,0,0,1,80.46,25.6a.15.15,0,0,1-.1219-.0186c-.0807-.1744-.168-.3468-.259-.516A4.3485,4.3485,0,0,1,80.334,23.6044Zm.863,1.4585h.0385a6.0768,6.0768,0,0,0,.2371.8308,11.4794,11.4794,0,0,1-.6013,1.1227c-.0679-.2456-.1488-.4911-.24-.7335A5.4018,5.4018,0,0,0,81.197,25.0629Zm.1064,2.2241c.0551.2519.2668.8064.2668.8064a2.4951,2.4951,0,0,1-.4143.5931,7.5213,7.5213,0,0,0-.123-.9867C81.0983,27.59,81.2264,27.4106,81.3034,27.287Zm.209-3.5371a2.9939,2.9939,0,0,1-.141-1.538,2.0746,2.0746,0,0,0,.786-.2078c.068.1757.1307.3565.191.5457-.1012.4885-.5487,1.3008-.6988,1.3008A.1316.1316,0,0,1,81.5124,23.75Zm-.5693-2.0516a3.8672,3.8672,0,0,0-.0449-.6962,2.674,2.674,0,0,0,.513-.568,11.7879,11.7879,0,0,1,.5577,1.1066A1.8978,1.8978,0,0,1,80.9431,21.6983Zm-.8064-.8937c-.1257,0-.1539-.1551-.1539-.2327a3.8763,3.8763,0,0,1,.3641-1.4867,6.6141,6.6141,0,0,0-1.331.1853.1376.1376,0,0,1-.1731-.1706,7.346,7.346,0,0,1,.727-1.4008l.14-.0429c.4488.8193.9539,1.536,1.43,2.3164A2.311,2.311,0,0,1,80.1367,20.8046Zm-4.0173-.4859a3.3744,3.3744,0,0,0,.5-.5841.4888.4888,0,0,0,.127.345,6.2638,6.2638,0,0,0-.209,1.4406c-.027,0-.0512.0006-.0744.0012-.123-.0526-.2486-.0986-.3756-.14A2.9667,2.9667,0,0,0,76.1194,20.3187Zm.5449-1.3713a5.4324,5.4324,0,0,1-1.0192,1.0514c-.11.0737-.1475-.0378-.1475-.1122a4.5243,4.5243,0,0,1,.1564-1.4105l.3487-.5757a3.8991,3.8991,0,0,0,1.1438-.2589l.0359.0493A5.4487,5.4487,0,0,0,76.6643,18.9474Zm-3.6119,1.4148a.1273.1273,0,0,1-.1245-.1056,3.2612,3.2612,0,0,1,.059-1.4111,2.9506,2.9506,0,0,0,.3-.81,1.0545,1.0545,0,0,0,.4436-.09,3.76,3.76,0,0,0-.1231.8771,1.28,1.28,0,0,0,.2488.7559S73.5332,20.3622,73.0524,20.3622Zm.7847-.016a6.1914,6.1914,0,0,1-.095.8765c-.1795.0244-.3538.0551-.5217.0916a1.3818,1.3818,0,0,1-.0476-.3846A1.4022,1.4022,0,0,0,73.8371,20.3462ZM69.566,19.164l-.0422.0007c-.0449-.0487-.0885-.0968-.1348-.1455a5.3324,5.3324,0,0,0,.0859-1.0777,5.567,5.567,0,0,0,1.1656-.6725.6827.6827,0,0,0,.55.0134,8.5746,8.5746,0,0,1-.2064.9918A5.5092,5.5092,0,0,1,69.566,19.164Zm1.3206-.2115-.0845.5577a2.4042,2.4042,0,0,0-.25.8373c-.2077-.2519-.4347-.5179-.6771-.7923A4.0663,4.0663,0,0,0,70.8866,18.9525Zm-1.2372-3.1876a3.8511,3.8511,0,0,0,1.1385-.72,11.7686,11.7686,0,0,0-.3192,1.5625,3.0685,3.0685,0,0,1-1.13.7776.1086.1086,0,0,1-.11-.1167A3.74,3.74,0,0,1,69.6494,15.7649ZM69.1186,15.3c-.1039,0-.1078-.0468-.0963-.1084a4.8682,4.8682,0,0,1,.5938-1.4776,3.8909,3.8909,0,0,0,1.386-.6674,6.5759,6.5759,0,0,0-.2051,1.1148A2.3262,2.3262,0,0,1,69.1186,15.3Zm3.6016.0288c-.3756.4142-.7283.704-1.0514,1.0239-.1217.1192-.2589.2853-.4321.2853-.132,0-.1551-.1628-.1551-.2429a9.7954,9.7954,0,0,1,.25-1.5541,1.9981,1.9981,0,0,0,1.3668-.7334A2.7123,2.7123,0,0,0,72.72,15.3289Zm-1.468,4.3577a2.6218,2.6218,0,0,0,1.2694-.495,3.71,3.71,0,0,0-.1194.9847,2.83,2.83,0,0,1-1.3014.8533c-.0385-.05-.0781-.1012-.1205-.1538A2.6776,2.6776,0,0,1,71.2522,19.6866Zm1.2027,1.043a.4569.4569,0,0,0,.2949.2558,2.6231,2.6231,0,0,0,.0127.443,8.52,8.52,0,0,0-1.0668.3847c-.09-.123-.1962-.2654-.3154-.4225A3.3075,3.3075,0,0,0,72.4549,20.73Zm.2256-2.4438a1.6988,1.6988,0,0,1-1.1489.8506c-.055,0-.109.004-.109-.0787a18.7426,18.7426,0,0,0,.3822-2.0362c.232-.27.8321-.7841,1.104-1.0924A7.0742,7.0742,0,0,1,72.6805,18.2858Zm.536-4.47a2.7276,2.7276,0,0,1,1.209-1.397.6009.6009,0,0,0,.5079.4116,2.2908,2.2908,0,0,0-.4476.8829,8.0223,8.0223,0,0,1-1.1911,1.3822c-.06.0513-.1115.0167-.1179-.0269A3.36,3.36,0,0,1,73.2165,13.8159Zm.1384,3.6672h-.0384l.0987-1.8a8.1418,8.1418,0,0,0,1.3553-1.6458.3211.3211,0,0,0,.2347.052,1.9746,1.9746,0,0,0-.4321,1.01c0,.311.2231.427.5641.45a2.646,2.646,0,0,0-.5205.8744C74.2667,16.9138,73.6434,17.4676,73.3549,17.4831Zm3.7172-1.9516a2.6682,2.6682,0,0,0,.9258.1981,2.3,2.3,0,0,1-.6873,1.2752,2.5525,2.5525,0,0,1-1.3259.3187A2.3788,2.3788,0,0,1,77.0721,15.5315Zm-1.2707.7129a1.3449,1.3449,0,0,1-.6462.0725,2.3366,2.3366,0,0,1,.4975-.7412,3.5891,3.5891,0,0,0,.7654-.1025A4.0388,4.0388,0,0,0,75.8014,16.2444Zm1.35-1.2155a2.3385,2.3385,0,0,1,1.127-1.2694c.1232-.02.1629-.0083.1962.0333a11.824,11.824,0,0,0,.2065,1.1765C78.2684,15.2879,77.1516,15.186,77.1516,15.0289Zm1.2117-3.0773c-.0039.159.0012.3192.0077.4776q.0135.3375.0359.6526a1.632,1.632,0,0,1-1.4655-.3026,1.739,1.739,0,0,0,.586-.5859,4.1966,4.1966,0,0,1,.541-.6322l.2974.0232c-.0013.0827-.0051.1654-.0051.25C78.3607,11.874,78.3633,11.9125,78.3633,11.9516Zm.0243-.8354a4.7256,4.7256,0,0,1-1.3655-.4738c-.0782-.0571-.04-.12.0243-.1763a3.2563,3.2563,0,0,1,1.5323-.6539A9.8052,9.8052,0,0,0,78.3876,11.1162Zm-.827.3193c-.31.3078-.5911.8373-1.0014.9616a3.6651,3.6651,0,0,1-1.3284.0045.1244.1244,0,0,1-.0614-.2051,4.03,4.03,0,0,1,1.4117-1.21A4.13,4.13,0,0,0,77.5606,11.4355ZM75.4283,12.903a3.9161,3.9161,0,0,0,.777.0185c-.1179.1315-.5115.3822-.8885.7828C74.93,13.5864,75.2206,13.2793,75.4283,12.903Zm1.1655.3058a2.1168,2.1168,0,0,0,1.081.3692,2.601,2.601,0,0,0-.94,1.2516,2.8933,2.8933,0,0,1-1.4616.2333c-.0872,0-.1988-.041-.16-.1481A4.967,4.967,0,0,1,76.5938,13.2088Zm-2.3862,4.4679a4.4406,4.4406,0,0,0,.6514-.8725,2.729,2.729,0,0,0,.6847-.0193,3.1049,3.1049,0,0,0-.14,1.0014c-.3142.8533-.8682,1.349-1.1373,1.349C74.1192,19.1339,73.9705,18.5486,74.2076,17.6767Zm.2128,1.94a1.43,1.43,0,0,0,.622-.4238A3.0007,3.0007,0,0,0,75.104,20.51a1.6533,1.6533,0,0,1-.7283.4578C74.2474,20.9682,74.2384,20.2136,74.42,19.6167Zm1.2361,1.0513a1.298,1.298,0,0,1-.1192.5688,4.347,4.347,0,0,0-.5642-.0724A2.6978,2.6978,0,0,0,75.6565,20.668Zm2.3477,1.2855a.43.43,0,0,0,.463.2674,1.8978,1.8978,0,0,1-.0808.5078c-.1129-.0654-.2243-.1373-.3335-.2122-.137-.1181-.2794-.23-.4256-.3347A1.6939,1.6939,0,0,1,78.0042,21.9535Zm-.81-.1628A.14.14,0,0,1,77,21.6425a4.9572,4.9572,0,0,1,.2077-1.5783c.2911-.1539.6065-.3834.9334-.5924a.319.319,0,0,0,.086.2333,4.3827,4.3827,0,0,0-.3244,1.663A6.1678,6.1678,0,0,0,77.1939,21.7907ZM78.348,18.81a9.8492,9.8492,0,0,1-1.1682.5982c-.068,0-.1179-.0411-.1167-.1565a6.6914,6.6914,0,0,1,.5245-1.48,3.2113,3.2113,0,0,0,1.295.0416A6.4159,6.4159,0,0,0,78.348,18.81Zm.3974,1.0764a3.27,3.27,0,0,1,.8707-.2307,2.8373,2.8373,0,0,0-.086,1.1591,7.8114,7.8114,0,0,0-.9232.7629c-.073.0769-.1372-.0083-.1372-.0853A3.422,3.422,0,0,1,78.7454,19.8859Zm.2257,2.0722a2.9805,2.9805,0,0,1,.62-.4988H79.63a2.7559,2.7559,0,0,1-.0064,1.1988,1.3935,1.3935,0,0,1-.8667.4853l-.0514-.0058A2.1136,2.1136,0,0,0,78.9711,21.9581Zm.7026,1.1962a.6235.6235,0,0,0,.2052.3474,3.3219,3.3219,0,0,0-.1859.8958.2.2,0,0,1-.0206-.0193,9.6179,9.6179,0,0,0-.618-.84A1.3731,1.3731,0,0,0,79.6737,23.1543Zm-1.5387-5.84c-.2077-.0251-.2551-.093-.2551-.093a2.4517,2.4517,0,0,0,.6912-1.53l.2615-.134a9.9061,9.9061,0,0,0,.5809,1.52A2.1337,2.1337,0,0,1,78.135,17.3139ZM77.73,9.47s.0295.0584-.0437.0751a3.9333,3.9333,0,0,0-1.2745.695,4.0324,4.0324,0,0,1-.9744-.2564c.3577-.33.8539-.74,1.1373-1.0188A2.7923,2.7923,0,0,1,77.73,9.47Zm-1.6734,1.1867.01.0366a6.3243,6.3243,0,0,0-1.3142,1.0957,2.2082,2.2082,0,0,0-.7027.2276,2.3871,2.3871,0,0,0-.5564.4641c.0231-.7212.0409-1.2489.4628-1.5534a5.7756,5.7756,0,0,1,.8744-.511A5.9,5.9,0,0,0,76.0565,10.6565Zm-2.9669.8213a4.5451,4.5451,0,0,0-.177,1.554c-.2269.41-.9848,1.1938-1.3425,1.1938-.1308,0-.1642-.14-.16-.31a6.531,6.531,0,0,1,.1833-1.1931,1.83,1.83,0,0,0,.3962-.5469A3.301,3.301,0,0,0,73.09,11.4778Zm-4.9161-.11c-.0718.02-.1179-.0089-.1154-.0781a8.4626,8.4626,0,0,0,.46-2.2,6.7543,6.7543,0,0,0,1.2669-.6507c.1154-.0378.15.0115.1539.1557C69.961,10.1507,69.5185,10.9893,68.1735,11.3681Zm1.3566-.1288a2.5044,2.5044,0,0,1-.3513,1.0809A5.33,5.33,0,0,1,67.52,13.6256c-.0923,0-.1243-.0552-.1077-.1372a15.0115,15.0115,0,0,1,.4487-1.5419A3.3317,3.3317,0,0,0,69.53,11.2393ZM67.4722,14.24a5.168,5.168,0,0,0,1.6617-1.1636,1.6859,1.6859,0,0,0,.0782.4944,5.2426,5.2426,0,0,0-.7924,1.6212c-.3347.2886-.8271.7842-1.31.7842A4.0878,4.0878,0,0,1,67.4722,14.24ZM68.98,17.9755a1.9838,1.9838,0,0,1-.0026.6109c-.1217-.1256-.2448-.25-.3718-.375l-.5769-.64a2.2375,2.2375,0,0,1,.6834-.3527A.9956.9956,0,0,0,68.98,17.9755Zm-.24-1.2143a4.0646,4.0646,0,0,0-1.1951.4673l-.1-.0865a1.4723,1.4723,0,0,0,.2988-.8284,2.5286,2.5286,0,0,0,.6449-.4692,1.1991,1.1991,0,0,0,.6206.0513A3.5055,3.5055,0,0,0,68.74,16.7612ZM65.913,15.2405a.9659.9659,0,0,0,.0321-.5136,4.2213,4.2213,0,0,0,.9013-.3321,2.41,2.41,0,0,0-.1961.6174A2.2835,2.2835,0,0,0,65.913,15.2405Zm.6014.3519-.05.7713c-.2066-.1506-.4143-.2949-.6258-.4321a.1188.1188,0,0,1-.0154-.0352A1.3219,1.3219,0,0,1,66.5144,15.5924Zm.74.8713a1.0851,1.0851,0,0,1-.173.375c-.1-.08-.2-.159-.2987-.2365A1.1659,1.1659,0,0,0,67.2541,16.4637Zm-.4975-2.6709a3.0772,3.0772,0,0,1-1.1989.5091c-.1294.0224-.2448-.0372-.1819-.266a5.99,5.99,0,0,1,.5282-1.4515,4.5028,4.5028,0,0,0,1.3925-.5905A11.6084,11.6084,0,0,0,66.7566,13.7928Zm3.0363,8.9788a6.2581,6.2581,0,0,1-3.0657.9751c-2.6311,0-4.7186-.6969-6.0354-2.0157a4.4259,4.4259,0,0,1-1.37-2.8016c.0078-1.0726.7424-2.2124,2.7888-2.2124C64.5667,16.717,67.8979,20.2681,69.7929,22.7716Zm7.56,22.7009-.0077.0027c-1.1168-1.9824-4.9468-5.802-4.9468-8.5294,0-1.095.4577-1.6861,1.2181-1.8514a6.55,6.55,0,0,1,.672-.0418c3.0272.2905,5.1454,7.5426,6.7367,11.415.0051.0115-.0128.0128-.0167.009-4.1467-4.4327-4.0287-8.955-6.2906-8.955a.8057.8057,0,0,0-.7961.8411C73.9218,39.9681,76.2464,41.1143,77.3529,45.4725ZM61.2355,30.386s-.2822.1488-.4129.2193-.6245.38-.6245.38a5.5982,5.5982,0,0,1-2.3118-.1917c-.0577-.0212-.0667-.0648-.032-.1027a4.1114,4.1114,0,0,1,1.395-.6347.5772.5772,0,0,0,.2949-.2044A6.7935,6.7935,0,0,0,61.2355,30.386ZM59.8212,29.18a5.173,5.173,0,0,1,1.8733-.761,9.3456,9.3456,0,0,0,.2347,1.5007,4.91,4.91,0,0,1-2.0887-.6031A.0814.0814,0,0,1,59.8212,29.18Zm-.1283,2.3227a.297.297,0,0,0,.0257.1417,8.8778,8.8778,0,0,0-1.5066.8148,12.46,12.46,0,0,1-1.8079-.3321c-.1027-.0378-.136-.0955-.0551-.1718a8.683,8.683,0,0,1,1.168-.6686A6.1236,6.1236,0,0,0,59.6929,31.5022ZM58.7223,32.81a6.0789,6.0789,0,0,1,1.4861-.8213,5.4817,5.4817,0,0,0,1.8464.3257,4.2946,4.2946,0,0,0-.8937.7366A4.4482,4.4482,0,0,1,58.73,32.905.0543.0543,0,0,1,58.7223,32.81ZM60.81,31.5284c-.0974-.046-.0756-.1057-.0154-.1538a6.12,6.12,0,0,1,1.3259-.768,9.6411,9.6411,0,0,0,.4448,1.1411A5.3531,5.3531,0,0,1,60.81,31.5284Zm2.9569-3.7575a7.56,7.56,0,0,1,.4346-2.1207,14.7639,14.7639,0,0,0,2.526.2077A8.859,8.859,0,0,0,71.1213,24.45a7.1914,7.1914,0,0,1,3.5928-1.1989,4.003,4.003,0,0,1,2.944,1.9061,7.0271,7.0271,0,0,1,1.4129,3.9043,4.2672,4.2672,0,0,1-1.2,3.1613A3.0654,3.0654,0,0,1,75.7322,33c-.1244,0-.2513-.0058-.38-.0167-.3269-.0287-.6487-.0436-.9552-.0436a9.081,9.081,0,0,0-3.6736.7957,5.371,5.371,0,0,1-2.1554.5289,4.4945,4.4945,0,0,1-3.1248-1.85A7.447,7.447,0,0,1,63.7666,27.7709ZM62.1689,25.102c-.091.2834-.1846.602-.2655.938a3.484,3.484,0,0,0-1.53-.0315,2.6745,2.6745,0,0,0-.3821-.3577c-.08-.0653-.0513-.0891-.0231-.1129a6.4179,6.4179,0,0,1,1.5067-.7328C61.7,24.911,61.93,25.011,62.1689,25.102Zm-.3809,1.4809c-.0383.2206-.07.4437-.091.6649-.0064.0661-.0115.1321-.0167.1975-.0013.0269-.0013.0532-.0024.0794-.0052.0879-.0078.1757-.0078.2616,0,.0442.0026.0878.0026.1321a6.6191,6.6191,0,0,1-1.8015-.7559c-.0756-.0345-.0923-.0672-.0307-.1359A1.9521,1.9521,0,0,1,61.788,26.5829Zm-1.0372,1.5714.0077.0283a4.5376,4.5376,0,0,0-1.4618.6308,5.0648,5.0648,0,0,1-1.9118-.34c-.0679-.0327-.123-.14.04-.2192a7.5607,7.5607,0,0,1,1.8413-.7207C59.67,27.6927,60.1365,27.8863,60.7508,28.1543ZM59.01,29.31a.3071.3071,0,0,0,.0744.2557,4.9744,4.9744,0,0,0-1.6835.6745,5.28,5.28,0,0,1-1.9414-.2615c-.0589-.02-.0769-.0315-.01-.1257a5.6783,5.6783,0,0,1,1.7208-.8572A11.8764,11.8764,0,0,0,59.01,29.31Zm-1.8733,1.4264a.2373.2373,0,0,0-.0142.1924,7.2114,7.2114,0,0,0-1.2258.5706,4.7139,4.7139,0,0,1-1.9937-.37c-.08-.0621-.0821-.143.0358-.2044a10.1444,10.1444,0,0,0,1.1206-.5342A7.2441,7.2441,0,0,0,57.1362,30.7367Zm-1.5771,1.3008c-.0577.0949.0218.243.0846.3135l-.245.1135A6.4655,6.4655,0,0,1,54.1576,33a6.25,6.25,0,0,1-1.9157-.357c-.0717-.0269-.0717-.09-.0385-.1167a5.6373,5.6373,0,0,1,1.635-.81A7.3073,7.3073,0,0,0,55.5591,32.0375Zm-3.9223.2283a.5585.5585,0,0,0-.1667.21,3.2063,3.2063,0,0,1-1.1579-.332.072.072,0,0,1,0-.1161l.2193-.1461A6.2083,6.2083,0,0,0,51.6368,32.2658Zm-1.1451,1.406a.0579.0579,0,0,1-.01-.1039,8.9407,8.9407,0,0,1,1.1726-.5726,6.7987,6.7987,0,0,0,1.9978.463.3455.3455,0,0,0-.0449.2288,4.87,4.87,0,0,0-1.1951.5244A4.8629,4.8629,0,0,1,50.4917,33.6718ZM52.5779,34.81a6.4728,6.4728,0,0,1,1.4271-.7258,8.8148,8.8148,0,0,0,1.3874.352,3.1892,3.1892,0,0,1-2.7722.5058C52.5421,34.9027,52.5381,34.8482,52.5779,34.81Zm1.8848-1.1828c-.1038-.0449-.0986-.1174-.02-.1392A9.5523,9.5523,0,0,0,56.18,32.687a9.8172,9.8172,0,0,0,1.6348.2847c-.2782.2731-1.4361.81-1.6617,1.0065A4.0047,4.0047,0,0,1,54.4627,33.6269Zm2.394.6654a12.5805,12.5805,0,0,0,1.4464-.888,5.0744,5.0744,0,0,0,1.9477.2239,7.47,7.47,0,0,0-1.122.92,6.2,6.2,0,0,1-2.2645-.1692C56.8105,34.3635,56.7989,34.3256,56.8567,34.2923Zm3.0927.2655a5.8849,5.8849,0,0,1,1.1886-.8918,5.3177,5.3177,0,0,1,1.5322.5384l-.5064.4642a8.979,8.979,0,0,1-2.1759-.0359C59.9366,34.62,59.9237,34.5917,59.9494,34.5578Zm1.9259-1.3412c-.0642-.018-.0654-.0456-.0026-.1059A3.12,3.12,0,0,1,62.92,32.44a9.5737,9.5737,0,0,0,.7231,1.09c-.1526.0686-.4615.2314-.4615.2314A8.4289,8.4289,0,0,0,61.8753,33.2166Zm1.0488,1.5469a4.1148,4.1148,0,0,1,1.122-.7443,8.1768,8.1768,0,0,0,1.2258,1.1315,9.3813,9.3813,0,0,1-2.2363-.2609C62.9164,34.86,62.8819,34.81,62.9241,34.7635Zm3.0119,1.6913c.2847.286.6553.636,1.0219.9694a82.4257,82.4257,0,0,1-8.3112,7.2919,4.0188,4.0188,0,0,1,.2589-2.0618c.4924-1.1553,1.79-4.2287,2.4952-5.9995A25.2612,25.2612,0,0,0,65.936,36.4548Zm-5.0712,17.61c-.0127-.0577.027-.0974.0937-.1423a1.8744,1.8744,0,0,1,.5539-.2462c.3013.836-.2808,1.4207-.5359,1.3951A2.9478,2.9478,0,0,0,60.8648,54.0647Zm-.3205,1.0206a.6305.6305,0,0,1-.4065-.0076,1.0763,1.0763,0,0,0,.38-.4436A1.6208,1.6208,0,0,1,60.5443,55.0853Zm-1.1526-1.2539a.8287.8287,0,0,1,.6474.0974c.1372.8232-.3423,1.1078-.609,1.0951A1.709,1.709,0,0,0,59.3917,53.8314Zm2.5566-.9451c-.0667-.5449-.4065-.9321-1.3693-1.1373a2.7927,2.7927,0,0,0-2.9171-2.4234c.41-.8539,8.0485-6.0314,11.04-10.3795a27.8078,27.8078,0,0,1,6.656,8.0215c.7423,1.4631.3911,3.0607,1.2014,4.2981,0,.0012.1527,1.8874,1.4181,2.1835a1.51,1.51,0,0,0,1.0054-.1641,11.1892,11.1892,0,0,0,1.6848,1.8707H62.1805A2.008,2.008,0,0,0,61.9483,52.8863Zm24.434,1.3388a.6931.6931,0,0,1,.377-.1412.7481.7481,0,0,1,.4692.1194.9519.9519,0,0,1-.155.8373A1.8383,1.8383,0,0,0,86.3823,54.2251Zm2.6209.8757a2.4822,2.4822,0,0,0-.5168-.9553.6853.6853,0,0,1,.7283-.1641A1.1842,1.1842,0,0,1,89.0032,55.1008Zm1.9553-1.7119c.4642.1642.6873,1.2874.132,1.57A1.527,1.527,0,0,0,90.438,53.93,1.3,1.3,0,0,1,90.9585,53.3889ZM78.5146,35.177c1.3977,2.6805,1.9875,4.9731,3.0158,9.4224.8257,3.5684,2.9722,5.8789,3.5249,6.08s2.3117-.65,3.1183.3975c1.2143,1.7451,2.0361,1.381,2.0361,2.2528a1.2689,1.2689,0,0,0-.3513.7706,1.3137,1.3137,0,0,1,.6577,1.0552h-1.06a2.4249,2.4249,0,0,0,.2078-.8475c0-1.0693-1.1861-1.4938-2.1132-2.9734a.2119.2119,0,0,0-.1192.1436A8.1035,8.1035,0,0,0,88.67,53.5531a1.2813,1.2813,0,0,0-.6194.6553,2.9358,2.9358,0,0,1,.4526.9474H87.494a1.6309,1.6309,0,0,0,.2371-.8718,1.3833,1.3833,0,0,0,.2347-.618c0-1.2694-1.1655-1.9157-2.5876-2.3978a5.74,5.74,0,0,1-3.417-2.5426.3456.3456,0,0,0-.1539-.04,3.703,3.703,0,0,0,1.5336,2.4427c1.1835.9745,3.8658,1.1911,3.8658,2.53-.5936-.1383-1.3308.1886-1.4078.6527a3.0219,3.0219,0,0,1,.6244.8449h-1.386c-.2553-.5435-.9861-.9462-1.9568-1.4155-.0768,0-.2282.0783-.1537.1308.5628.4027,1.127.8566,1.127,1.2836v.0011H82.2715c-.46-.7564-1.9349-1.5539-2.5927-2.4181a2.0874,2.0874,0,0,0-.2807-1.7452c.1243.9925-.3,1.5451-.9489,1.5451-.8373,0-1.0181-.8193-.9834-1.5169-1.081-1.45.02-2.6567-2.0952-5.8867a35.1865,35.1865,0,0,0-7.88-8.7s.7372.1025,1.1027.1025a8.0148,8.0148,0,0,0,3.2081-.9584c.0577-.0225.1141-.0443.1718-.0661A3.5107,3.5107,0,0,0,71.63,37.06c0,3.8185,5.1392,7.1061,6.3842,11.3964l.082.0077c.5976-5.4481-3.4593-9.0012-3.4593-9.923,0-.2079.1012-.33.2538-.33,1.16,0,3.28,8.1754,7.2343,9.6282a.2116.2116,0,0,0,.1128-.08c-2.8233-6.1853-3.2594-10.3628-5.9815-12.6734a5.0759,5.0759,0,0,0,3.0286-1.3027,5.8662,5.8662,0,0,0,1.749-3.2729,1.2266,1.2266,0,0,0,.2616.493c.1141.0859.3076.0154.4372-.014A15.97,15.97,0,0,1,78.5146,35.177Zm3.5209-4.7923a.4575.4575,0,0,1-.4666-.057,2.5966,2.5966,0,0,1-.3924-.795,4.9006,4.9006,0,0,0,.6552-.9758.603.603,0,0,0,.4706.2886.847.847,0,0,0,.3577-.1879A10.2769,10.2769,0,0,1,82.0355,30.3847Zm.8809-3.6543a7.2652,7.2652,0,0,1-.0692.9905c-.1577.2277-.3885.45-.468.45-.12,0-.2218-.1481-.2795-.25a10.3012,10.3012,0,0,1-.5295-1.1226c.0385-.0769.1474-.3187.1871-.4379a3.92,3.92,0,0,0,.4732.7457c.1063.11.1359.1326.2411.0127a2.8768,2.8768,0,0,0,.4423-.7559C82.9164,26.4835,82.9164,26.606,82.9164,26.73Zm-.3179-3.24A13.1383,13.1383,0,0,1,82.86,25.26a3.9547,3.9547,0,0,1-.4475.9643c-.08.0794-.1527.0095-.2168-.0859a2.9235,2.9235,0,0,1-.5629-1.5316A2.3448,2.3448,0,0,0,82.5985,23.4908Zm3.4658-7.3367a1.2193,1.2193,0,0,1,.0756,1.2681c-.1436-.0962-.4372-.3084-.5436-.3949A3.25,3.25,0,0,0,86.0643,16.1541ZM84.05,14.9508c-.1488-.8079-.1257-.8246.5732-1.7753a8.7155,8.7155,0,0,0,.0384,2.2406C84.4269,15.3649,84.1141,15.2969,84.05,14.9508Zm-.5526-.1828c.2232,1.7566.3629,1.8336,2.1874,2.9356a.0135.0135,0,0,1-.0127.0237c-2.2144-.6969-2.285-.7815-2.5479-2.3169-.3076-1.7932-.0218-1.8381,1.1477-3.13.041-.0462.0718-.06.1769-.0282.1142.0334.1538.0532.2988.0943C83.6051,13.7108,83.3973,13.9736,83.4973,14.768Zm3.4363-1.4022c-.2115,0-.3513-.3327-.5039-.3327-.1384,0-.1192.21-.441.0623a.7269.7269,0,0,1-.4181-.5124c.3591.1141,1.44.461,1.7567.5578A.3984.3984,0,0,1,86.9336,13.3658Zm.5295,1.3041c-.09,0-.1063-.0827-.1063-.2077a3.1048,3.1048,0,0,1,.368-1.1918c.19.0628.6513.216.963.3192C88.421,13.9621,87.7684,14.67,87.4631,14.67Zm1.4593-1.6c-1.1-.26-3.2261-.9045-3.389-.9462a.8777.8777,0,0,1,.9348-.5411c.6013,0,1.4386,1.0059,2.4542,1.1315.0936.0116.1205.0718.1205.1668C89.0429,12.9844,88.9827,13.0845,88.9224,13.07Zm.75.14c-.1245,0-.195-.0629-.1667-.1257a1.211,1.211,0,0,1,.66-.6931c.2475-.1468.0449-.6071.3911-.7321a.547.547,0,0,0,.3514-.5007c.0153-.1788.2268-.3758.2628-.5668a1.3936,1.3936,0,0,1,.4039.5463C91.5,11.34,90.5982,13.21,89.6725,13.21Zm-.7385-1.6759a4.3108,4.3108,0,0,0-2.08-1.2476c.4962-.6154,2.0258.2257,2.9042,1.2629.159.1879.1436.3334.0627.4149C89.5891,12.1972,89.089,11.6952,88.934,11.5336Zm1.5027-2.3a3.3077,3.3077,0,0,0-1.5952-.82,1.5021,1.5021,0,0,1,1.5914.2123A.5365.5365,0,0,0,90.4367,9.2339Zm.2,1.1483a.1738.1738,0,0,1-.3051.1148,5.48,5.48,0,0,0-2.3067-1.58C88.6672,8.2819,90.6366,9.46,90.6366,10.3822ZM92.89,9.53a1.4631,1.4631,0,0,1-.5089.8624.8341.8341,0,0,1-.3463-.1181c0-1.2821-1.0361-.793-1.0361-1.3508,0-.2642.6874-.2346,1.0771-.5378A2.0133,2.0133,0,0,1,92.89,9.53ZM89.8058,6.5758c.4706-.1979,1.6733.6752,1.9875,1.2329-.0745.127-.3539.2142-.49.2718A2.4616,2.4616,0,0,0,89.83,7.1856c-.7334.0372-1.3721.375-2.7338.5827-1.4437.2206-2.8759,1.2983-3.9223,1.2983-.8077,0-1.1949-.4072-1.1949-.9167,0-.6834.5128-.8413,1.15-.8413.7321,0,1.359.4065,2.0629.4065a1.6084,1.6084,0,0,0,.8066-.1961A8.3206,8.3206,0,0,0,89.8058,6.5758ZM86.83,8.2164A6.0831,6.0831,0,0,1,83.1536,10.25c-1.1386,0-1.78-.8866-1.4771-1.4535a1.7984,1.7984,0,0,0,1.4771.7733C84.4257,9.57,85.7438,8.4217,86.83,8.2164ZM84.4693,6.5425a.7014.7014,0,0,1,.7821-.7237.7164.7164,0,1,1,.0063,1.4328A.7253.7253,0,0,1,84.4693,6.5425Zm4.6518-.3532a5.28,5.28,0,0,1-2.8184.8674.7493.7493,0,0,0,.0667-.4071c.5244.168,1.0771.0712,1.0041-.31-.7694.2493-1.045-.88-2.1759-.88-1.1771,0-2.0735.9405-2.998.3558a.9759.9759,0,0,1-.3832-.8135A1,1,0,0,1,82.869,3.9627c1.0617,0,1.8759,1.0039,3.0016,1.0906a4.8068,4.8068,0,0,1,1.05.1526.95.95,0,0,0,.7539-.0585A3.98,3.98,0,0,1,89.1211,6.1893ZM86.8055,4.1736c.24-.075.5705.1641.59.6175-.1181.1148-.4744-.0776-.8887-.0969C86.6516,4.6173,86.7,4.2987,86.8055,4.1736ZM81.238,2.1343a11.3654,11.3654,0,0,1,5.0276,1.8849c-.1667.46-.2218.5782-.4822.5782-.2731,0-1.4731-1.136-2.9413-1.136a1.5134,1.5134,0,0,0-1.613,1.5708,1.5994,1.5994,0,0,0,1.786,1.5367,2.3288,2.3288,0,0,0,.8822-.1641.8331.8331,0,0,0,.1206.5782c-.29-.0289-.7629-.1174-1.0527-.1174a1.3358,1.3358,0,0,0-1.5144,1.3817,1.4872,1.4872,0,0,0-.3512.9648c0,.96,1.01,1.531,2.0143,1.531,1.7221,0,3.4248-1.4277,4.375-2.6311.7757-.1462,1.8361-.5385,2.2617-.5385.3654,0,.6565.1808,1.2182.6591a1.66,1.66,0,0,0-.2693.1646,2.3592,2.3592,0,0,0-1.3387-.46,1.4251,1.4251,0,0,0-.9552.373,1.9025,1.9025,0,0,0-.427.1252,1.559,1.559,0,0,0-.7167.7A4.75,4.75,0,0,1,90.22,10.9a.2761.2761,0,0,1,.0385.36c-.0423.064-.1295.0462-.3167-.1077-1.8939-1.8983-3.3043-1.7849-3.7082-.5995a4.7736,4.7736,0,0,1,2.9287,1.7938c0,.0347-.0847.0526-.15.0449-.93-.1172-1.6464-1.277-2.6721-1.277a1.3021,1.3021,0,0,0-1.3194.8649c-.177-.0494-.4257-.1143-.5976-.1623a.3549.3549,0,0,0-.4116.1129c-1.5347,1.3924-1.7271,1.7713-1.4565,3.5427.3012,1.9855.5552,2.1458,3.7273,2.9491.0283.54-.1256.9514-1.09.9514-.759,0-1.4026-.393-2.0117-.393-.4577,0-1.0181.2482-1.3206.0154a9.9927,9.9927,0,0,1-2.7466-7.1619C79.1134,7.894,81.3085,6.0848,81.238,2.1343ZM69.5609,5.3629c2.2606-1.9637,5.761-4.0139,8.4934-4.0139,1.931,0,2.2683.4038,2.5862.7192A9.2581,9.2581,0,0,1,80.4879,4c-.7231.2032-1.622.604-1.15,1.3771a2.05,2.05,0,0,0-.336.1994,1.6664,1.6664,0,0,0-.25.2789A1.5778,1.5778,0,0,1,77.4465,5.25a3.88,3.88,0,0,0-1.0181-1.0232,2.5989,2.5989,0,0,1,2.9593-.243c.0758-.0359.16-.07.2706-.1141a1.8776,1.8776,0,0,0-1.7477-.98c-1.3232,0-2.222,1.2-3.0477,1.4964a.2732.2732,0,0,0-.0411.1537c.2321.1174.3078.3495.4232.5437A3.1342,3.1342,0,0,0,77.3234,6.95a3.5407,3.5407,0,0,0-.2.9649c-.6782.3776-1.9194,1.688-2.5079,1.9829a12.7924,12.7924,0,0,0,.2064-1.4193,11.2408,11.2408,0,0,1-1.3681.86c-.0565.0231-.1064-.0249-.095-.1083.04-.3007.2553-1.5714.2553-1.5714a5.95,5.95,0,0,1-1.4874,1.0059.1218.1218,0,0,1-.17-.0954,12.9925,12.9925,0,0,1,.46-2.2517s-1.3541.7892-1.631.93c-.09.0449-.141,0-.1359-.06.0321-.4506.28-1.7162.28-1.7162s-1.05-.0391-1.3682-.07Zm-.2564.8c.1166-.1923.4513-.2648,1.0014-.2218a7.6587,7.6587,0,0,0-.318,1.6906,3.1674,3.1674,0,0,1-1.2938.7425A7.642,7.642,0,0,1,69.3045,6.163Zm-2.23,1.3522a14.59,14.59,0,0,1,1.5528-1.5125l.0385.0007a9.3648,9.3648,0,0,0-.5642,2.1522c-.09.4109-.3731.7353-1.3822,1.2072A5.1012,5.1012,0,0,0,67.0746,7.5152Zm.88,1.75c-.0781.4243-.24.9994-.3141,1.2681-.2167.7744-.2693.9007-1.2015,1.3085-.7385.3218-.9013.1352-.9013.1352a4.93,4.93,0,0,0,.9489-1.9586A6.4035,6.4035,0,0,0,67.9542,9.2654Zm-1.6951-1.08.0385.0391a2.4476,2.4476,0,0,1-.286,1.1957,12.169,12.169,0,0,1-1.6642.4648A19.6285,19.6285,0,0,0,66.2591,8.1851Zm-2.1233,2.3112a11.8165,11.8165,0,0,0,1.5874-.4456c.0769-.0385.1025.04.0769.116s-.1808.64-.314.9656c-.2168.5263-.749.8616-1.9542,1.2354-.0769.0385-.1552-.0013-.1539-.0782A4.3654,4.3654,0,0,1,64.1358,10.4963Zm-2.5849,1.7765a15.8274,15.8274,0,0,0,1.786-1.5721,7.222,7.222,0,0,0-.5859,1.9119,3.2247,3.2247,0,0,1-1.4772.8231A2.74,2.74,0,0,0,61.5509,12.2728Zm-.6565.4725a1.0959,1.0959,0,0,1-.2564.695l-.5745-.0173A4.0254,4.0254,0,0,0,60.8944,12.7453Zm-1.7771,1.4918a1.0866,1.0866,0,0,1,1.1386-.2217,3.7593,3.7593,0,0,0-.5617,1.09,4.602,4.602,0,0,0-.441.2334.9525.9525,0,0,1-.518.0321A2.0563,2.0563,0,0,0,59.1173,14.2371ZM56.413,15.6033a18.8768,18.8768,0,0,0,1.9708-1.0815,2.2173,2.2173,0,0,1-.6616,1.31,4.1879,4.1879,0,0,1-1.4233.5463A2.376,2.376,0,0,0,56.413,15.6033ZM16.7509,20.8977C8.4613,18.6005.97,12.351.97,6.3836.97,3.1145,2.8106.82,5.9314.82c3.5,0,4.1956,2.2311,4.4865,3.9242a2.3836,2.3836,0,0,0,.8053,1.3573c.5071.4692-.1757,2.3933-.6309,2.3933-.2564,0-.4128-.65-.7513-.981a1.77,1.77,0,0,1-.56-1.3617c0-.4225.1308-.68.1308-.9873A3.1611,3.1611,0,0,0,5.9314,1.7C3.7767,1.7,2.038,3.0883,2.038,6.3836,2.038,12.676,12.6644,18.5,17.4676,18.5c3.0061,0,4.91-2.5677,10.752-2.5677,3.3133,0,8.189,1.2656,15.3411,1.2656,8,0,9.7429-.4058,12.22-1.3432a3.4126,3.4126,0,0,1-.1835.8585c-.0282.0827-.0243.1276.0757.1365a3.4524,3.4524,0,0,0,1.8182-.3019,3.6461,3.6461,0,0,0-.3963.7809c-.0243.08-.0191.1121.0718.11a1.8555,1.8555,0,0,0,.3425-.0392,4.2812,4.2812,0,0,0-.2822,1.5285v.016a6.4864,6.4864,0,0,0,1.9939,4.3044,7.8221,7.8221,0,0,0,1.654,1.2469,4.0792,4.0792,0,0,0-1.65,1.0976c-.0358.048-.0295.0776.0141.1078a4.7441,4.7441,0,0,1,.5808.5217,2.74,2.74,0,0,0-.6961.7642,8.8621,8.8621,0,0,0-2.2043.9905.4476.4476,0,0,0-.1819.6322c-.6771.2962-1.7273.6841-1.9695,1.3175-.2924.1859-.9129.4116-1.272.6225A4.5808,4.5808,0,0,0,50.8,30.3124a10.0674,10.0674,0,0,0-4.46-1.6882,4.1648,4.1648,0,0,0-2.2226-1.0481c-.34-.0212-.4444.0627-.2784.4276a4.8421,4.8421,0,0,0-1.5694-.1718c-.0808.0044-.1161.0435-.0834.1743a2.4108,2.4108,0,0,0,.4694.854,2.0313,2.0313,0,0,0-.7361.1116c-.1032.0487-.089.0987-.0191.2122a7.186,7.186,0,0,0,1.5065,1.6085c-.17.0429-.2231.1167-.1853.1935a6.37,6.37,0,0,0,2.9376,2.0613c.2128.6988,2.0464,1.72,3.3332,1.7438a3.0562,3.0562,0,0,0,2.6343.511,4.0847,4.0847,0,0,0,4.0761-.6393l.0731.0456a4.9715,4.9715,0,0,0,3.07.3584,6.8049,6.8049,0,0,0,2.8183.175.92.92,0,0,0,.45.184,5.3208,5.3208,0,0,0,.98.0923c.0282.0013.0219.0307.0167.0583-2.2682.1365-4.8814.01-5.343.0373-2.8722.1737-2.6876,1.2245-9.3237,1.2245a24.8258,24.8258,0,0,1-9.614-1.79,3.0338,3.0338,0,0,1-.42-1.497c0-1.0816.5532-1.4573,1.1667-1.4573.3193,0,.5546-.0013.5546-.1616,0-.1134-.1365-.2827-.78-.2827a1.9551,1.9551,0,0,0-1.833,2.0658,7.9831,7.9831,0,0,0,.6867,2.7214,1.5643,1.5643,0,0,1-.0051.9668,3.413,3.413,0,0,0-2.7118-1.7925,2.2874,2.2874,0,0,0-2.4716,2.35,3.8929,3.8929,0,0,0,1.6176,3.2453c.6789.554,1.7213,1.3668,1.7213,1.3668a1.7124,1.7124,0,0,1,.5693.9823,13.5693,13.5693,0,0,0,3.2921,7.35,2.0836,2.0836,0,0,1,1.55-.6641,2.2148,2.2148,0,0,1,2.1458,1.6771,1.0589,1.0589,0,0,1,.8584.4411,1.1777,1.1777,0,0,1-.3526.4949,1.7022,1.7022,0,0,0-.8841-.5782c.0808-.58-1.0007-1.4695-1.3758-1.4695a.4465.4465,0,0,0-.3123.132c.2744.113,1.2246.7541,1.2246,1.2952,0,.5871.6244.4243.8674.9487a3.2472,3.2472,0,0,1-.6487.4206,4.1882,4.1882,0,0,1,.3025,1.5349l-.1871.0178H39.0666c-1.238-.6616-5.8284-7.3842-6.5176-8.1971a1.2441,1.2441,0,0,0,.81-1.1951c0-.5769-.8161-1.6373-1.3732-1.6373a.9307.9307,0,0,0-.6168.2756,9.7726,9.7726,0,0,1-.0424-1.78,5.249,5.249,0,0,0-2.5054-4.47,1.8567,1.8567,0,0,0,.7918-1.4977c0-1.245-1.5028-2.41-2.8164-3.5908a13.0482,13.0482,0,0,1-3.6678-7.8126c-.4378-3.2415-1.788-4.2807-3.9049-4.2807A9.5817,9.5817,0,0,1,16.7509,20.8977Zm-3.8133,33.68a.3623.3623,0,0,1,.3916-.3539c.2757,0,.45.1346.45.3641,0,.2475-.1424.2847-.45.2847C12.9836,54.8725,12.9376,54.7212,12.9376,54.5776Zm1.502-.0269a.9176.9176,0,0,0-.1986-.4975.9005.9005,0,0,0-.3174-.2231.66.66,0,0,1,.5487-.4116c.1795,0,.2366.1449.2366.3538A1.2977,1.2977,0,0,1,14.44,54.5507Zm.7527-.55a1.198,1.198,0,0,1,.11.2666.7867.7867,0,0,1-.1327.736h-.5513A2.3814,2.3814,0,0,0,15.1923,54.0007Zm.3462-.4552c.1892-.1886.8027-.4591.8027.1038a2.1825,2.1825,0,0,1-.4129,1.045A3,3,0,0,0,15.5385,53.5455Zm1.3278,1.61a4.6221,4.6221,0,0,0,.4615-1.8783,2.162,2.162,0,0,0-1.56-1.9991l-.193-.0781a3.7824,3.7824,0,0,0-2.569-2.1991c-.1871-.0641-.1968-.24-.1871-.38a5.55,5.55,0,0,1,.411-1.6,9.3345,9.3345,0,0,1,1.53-2.48,1.24,1.24,0,0,1,.8513-.3783,11.3421,11.3421,0,0,0,3.5627-1.18,9.44,9.44,0,0,0,1.8643-1.613c.88-1.0411,3.0139-.4488,6.0822-2.52a4.3283,4.3283,0,0,1,2.8049,3.2235,15.2863,15.2863,0,0,0,.4442,3.8287,8.2,8.2,0,0,0,1.3245,1.89c.3078.3706,3.1242,4.07,5.1648,6.9586a3.0418,3.0418,0,0,0,.3245.4038ZM15.4379,42.7709c.5577-3.7581,1.8758-5.5969,3.6145-5.5969a1.7432,1.7432,0,0,1,1.8554,1.9913c0,2.0311-3.2191,3.9545-5.09,3.9545A.3377.3377,0,0,1,15.4379,42.7709Zm7.054-8.0439a16.1237,16.1237,0,0,1-4.4832-10.3437,3.8749,3.8749,0,0,0,.5513-2.0458c0-.3743.45-.6147.9162-.6147a3.0361,3.0361,0,0,1,2.6843,2.9753c.5674,4.74,1.91,6.915,4.416,9.0871,1.3668,1.1847,2.23,1.9528,2.23,2.6427a1.2043,1.2043,0,0,1-1.3271,1.3C25.5213,37.728,23.4273,35.7483,22.4919,34.727ZM31.3759,45.18a.7014.7014,0,0,1,.5564-.5284c.2853,0,.7962.7784.7962,1.0438a.7781.7781,0,0,1-.5981.6181C31.8963,46.3138,31.3759,45.5521,31.3759,45.18ZM7.1624,52.1735c0-2.567.5245-4.9494.5245-6.3125a14.5268,14.5268,0,0,1,.5916-4.6428c.6778-1.8246,2.8446-2.1516,4.51-3.1209,2.2323-1.2976,2.9151-3.803,2.9151-7.1285,0-3.7581.52-4.6212,1.3528-5.6918.05-.064.084-.0967.1321-.0967s.0814.0551.0947.1724a16.6035,16.6035,0,0,0,3.9192,9.06,15.1438,15.1438,0,0,0,4.7352,3.8518c.0815.0333.1129.1025.0379.1551-1.6394,1.06-3.5531,1.1963-4.4115,1.5528a4.1709,4.1709,0,0,0,.1417-1.0771,2.4361,2.4361,0,0,0-2.5818-2.4618c-1.6406,0-3.6665,1.1257-4.2249,5.62a3.2281,3.2281,0,0,1-.6841,1.5578,28.1994,28.1994,0,0,0-1.7745,3.0875,6.4258,6.4258,0,0,0-.49,2.15c0,.6874.51.9592,1.0937,1.1822a3.3189,3.3189,0,0,1,1.8073,1.5118c.1622.39.4931.4244.8629.5706a1.0683,1.0683,0,0,1,.622.7616,2.0948,2.0948,0,0,0-1.1848.3322.3608.3608,0,0,0-.18-.1577,1.3574,1.3574,0,0,0-.779-1.2c-.2993-1-1.7925-1.1-2.4259-1.7913a.1236.1236,0,0,0-.1167.1154c.42.9066,1.6348.6488,2.1278,1.9541.0411.1077.6758.2962.71.8924a1.2573,1.2573,0,0,0-1.0013.7193,1.13,1.13,0,0,0-.8778.3475,2.5264,2.5264,0,0,1-.6033-.7423c-.81-1.2618-2.5323-.8656-3.1215-1.52a3.8324,3.8324,0,0,1-.443-2.2873,3.28,3.28,0,0,1,.0231-.3527c-.1269-.0013-.2423.0372-.2693.3681-.0622.7679-.07,2.3579.46,2.8657.65.6218,2.213.286,2.6811,1.3719a4.1778,4.1778,0,0,0,.695,1.3655H8.3748C7.42,54.602,7.1624,53.239,7.1624,52.1735ZM29.8109,32.09a1.5383,1.5383,0,0,0,1.5515-1.6946c0-1.5469-1.34-1.8534-1.34-3.1624,0-1.4624,1.05-2.5139,1.05-3.832a1.6732,1.6732,0,0,0-1.8683-1.7713c-1.529,0-3.1017,1.5976-3.1017,4.1325C26.1026,29.6123,28.1908,32.09,29.8109,32.09Zm-.6553-9.891c1.0143,0,1.2727.56,1.2727,1.347,0,1.0859-.9887,2.1-.9887,3.687,0,1.3726,1.3118,2.0188,1.3118,3.0606,0,.61-.1578,1.1117-1.0547,1.1117-1.0135,0-2.7677-2.3131-2.7677-5.6116C26.929,23.4877,28.1639,22.1985,29.1556,22.1985ZM8.5876,45.4033a17.6521,17.6521,0,0,1-.4327,1.8926s-.1564.0051-.1564-.0616c0-.0872.155-.9129.1686-1.5835.0064-.3269-.036-.71-.036-1.5643a5.6541,5.6541,0,0,1,.58-2.3068s.2873-.0153.27.1168c-.0544.4116-.3211,1.28-.3551,1.6272C8.5523,44.275,8.6434,44.7764,8.5876,45.4033Zm.3474.6732c.14-.8578.7143-1.93.8284-2.976.03-.2744.0456-.318.1667-.318.3526,0,.1462,1.0758-.4251,3.2337a9.1774,9.1774,0,0,0-.29,2.4568S8.8658,48.4,8.85,48.1716A11.2067,11.2067,0,0,1,8.935,46.0765Zm2.8671-2.0811a11.1922,11.1922,0,0,1-.8276,3.0107,3.4309,3.4309,0,0,0-.01,1.9721c.0948.3243.1345.4846-.0322.4846-.0423,0-.1718-.01-.2019-.1a4.2438,4.2438,0,0,1-.375-2.2053c.2384-1.1592,1.0546-2.0439,1.2547-3.24C11.672,43.8775,11.8021,43.8724,11.8021,43.9954ZM36.6265,46.82c-.0449-.0654-.0417-.1321.025-.1321a1.9619,1.9619,0,0,1,.6482.4565c.2211.232.7116,1.522,1.2623,2.5183a26.3222,26.3222,0,0,0,1.856,2.3259c0,.0654-.0315.1193-.1289.1193a6.568,6.568,0,0,1-2.5368-2.8363A23.7323,23.7323,0,0,0,36.6265,46.82Zm44.0871,4.5583A4.4151,4.4151,0,0,0,81.71,53.139c0,.0782,0,.1167-.04.1551-.6154-.4282-1.5271-1.3719-1.5271-1.9721A4.801,4.801,0,0,0,79.38,48.06c-.0269-.0437.04-.1154.1167-.1539A4.299,4.299,0,0,1,80.7136,51.3785ZM39.3955,52.9146c.5622.3039,1.2507.6949,1.3526.7616.1372.0885.1424.4052.0719.4052-.0744,0-.3468-.2386-.6168-.35a7.6379,7.6379,0,0,1-2.0368-.93c-.4121-.4194-2.465-3.021-2.465-3.1159,0-.0885.1879-.1154.3089.0026A39.6879,39.6879,0,0,0,39.3955,52.9146Zm39.0678-2.2337c-.3949,0-.6462.2566-.6462.7694a.7794.7794,0,0,0,.7282.777.6431.6431,0,0,0,.61-.7258A.7927.7927,0,0,0,78.4633,50.6809Zm.027,1.1208a.3594.3594,0,0,1-.3411-.3552c0-.1629.0436-.4194.3141-.4194a.3792.3792,0,0,1,.3449.413C78.8082,51.6324,78.7185,51.8017,78.49,51.8017ZM54.3512,54.7379a1.5626,1.5626,0,0,1-.6769.141c-.654,0-.8271-.83-.8271-1.7335,0-1.2463.3514-1.8118.7988-1.8118a.3323.3323,0,0,1,.2051.0705c-.4052.3552-.5526.568-.5526,1.6234A1.5374,1.5374,0,0,0,54.3512,54.7379Zm-43.4985-11.13a1.06,1.06,0,0,0,1.4084-.5128,1.0947,1.0947,0,0,0,.1071-.3808,1.0759,1.0759,0,1,0-1.1412-1.1373,1.0859,1.0859,0,0,0-.8367.6051A1.0613,1.0613,0,0,0,10.8527,43.6082Zm1.4635-2.5695a.6016.6016,0,1,1-.5262.5962A.5647.5647,0,0,1,12.3162,41.0387ZM10.88,42.4645a.5958.5958,0,0,1,.41-.3757,1.0449,1.0449,0,0,0,.5764.5373.6847.6847,0,0,1-.0462.2359.5349.5349,0,0,1-.6834.3539A.5768.5768,0,0,1,10.88,42.4645Zm-.961,7.3317c-.5366,0-.9764.2411-.9764.7321a.9849.9849,0,0,0,.9764.9078c.5494,0,.9944-.3243.9944-.7808A.9456.9456,0,0,0,9.9192,49.7962Zm-.0628,1.2476a.5275.5275,0,0,1-.5231-.4859c0-.2936.2115-.3937.5231-.3937a.5077.5077,0,0,1,.5334.46A.4778.4778,0,0,1,9.8564,51.0438Zm24.7019-6.1956a1.2278,1.2278,0,0,0-.5668,1.0564,1.3315,1.3315,0,0,0,1.2938,1.2887A1.2872,1.2872,0,0,0,36.4694,45.81a1.1922,1.1922,0,0,0-.9808-1.1771,1.3215,1.3215,0,0,0,.4436-1.0539,1.2725,1.2725,0,0,0-1.236-1.2322,1.0538,1.0538,0,0,0-1.1329,1.2322A1.405,1.405,0,0,0,34.5583,44.8482ZM36.0027,45.92a.7462.7462,0,0,1-.7514.709.6731.6731,0,0,1-.6661-.709.7478.7478,0,0,1,.752-.7091A.6779.6779,0,0,1,36.0027,45.92Zm-1.2091-3.0055a.7091.7091,0,1,1-.7092.709A.66.66,0,0,1,34.7936,42.9146Zm21.9772,5.207c0-.0384-.0039-.0769-.0064-.1141a.7665.7665,0,0,0,.0781.0038.9671.9671,0,0,0,.9643-.9385.891.891,0,0,0-.8719-.9373.954.954,0,0,0-.9642.9373c0,.02.0013.04.0013.059a1.0153,1.0153,0,0,0-.1552-.0116,1.0258,1.0258,0,1,0-.018,2.0477A.9942.9942,0,0,0,56.7708,48.1216Zm-.9874.586a.5541.5541,0,0,1-.5488-.5591.5353.5353,0,0,1,.5578-.5589.5052.5052,0,0,1,.5372.5589A.5519.5519,0,0,1,55.7834,48.7076Zm1.136-2.1245a.4694.4694,0,0,1,0,.9385.4262.4262,0,0,1-.459-.4693A.465.465,0,0,1,56.9194,46.5831ZM85.1167,6.92a.3818.3818,0,1,1,.3821-.3822A.3816.3816,0,0,1,85.1167,6.92ZM17.38,69.5591v1.913H7.5413V60.2963H9.5755v9.2628Zm25.9053-7.35V64.852h8.1062v1.913H43.2857v2.7941h10.059v1.913H41.2507V60.2963h12.094v1.9131Zm40.3167,9.6c-3.8736,0-7.0253-2.3925-7.0253-5.8636s3.1517-5.8648,7.0253-5.8648,7.0266,2.3926,7.0266,5.8648S87.4773,71.8093,83.6024,71.8093Zm0-9.7743c-2.5824,0-4.7749,1.5169-4.7749,3.9107s2.1925,3.91,4.7749,3.91,4.775-1.5156,4.775-3.91S86.1861,62.035,83.6024,62.035Z" style="fill:#fff"/></svg>